<svg width="1436" height="41" viewBox="0 0 1436 40" fill="none" xmlns="http://www.w3.org/2000/svg">
<g filter="url(#filter0_d_366_418)">
<path d="M0 0.0556641V28.0557H25V32.0557H29V36.0557H33V32.0557H46V28.0557H63V32.0557H75V36.0557H83V32.0557H91V28.0557H98V24.0557H105V20.0557H130V24.0557H161V28.0557H174V32.0557H186V28.0557H196V24.0557H200V20.0557H208V16.0557H215V20.0557H228V24.0557H240V28.0557H247V32.0557H259V36.0557H263V32.0557H273V36.0557H410V32.0557H440V28.0557H456V24.0557H470V28.0557H508V32.0557H523V36.0557H539V32.0557H551V28.0557H572V32.0557H610V28.0557H618V24.0557H627V20.0557H635V16.0557H677V20.0557H691V24.0557H711V20.0557H726V16.0557H734V12.0557H738V8.05566H756V12.0557H764V8.05566H775V4.05566H779V8.05566H799V12.0557H820V8.05566H852V4.05566H931V8.05566H981V12.0557H989V16.0557H1007V20.0557H1017V24.0557H1038V20.0557H1050V16.0557H1067V20.0557H1105V16.0557H1114V12.0557H1122V8.05566H1249V12.0557H1261V16.0557H1266V20.0557H1277V16.0557H1286V12.0557H1320V16.0557H1333V20.0557H1432V24.0557H1440V0.0556641H0Z" fill="white"/>
</g>
<defs>
<filter id="filter0_d_366_418" x="0" y="0.0556641" width="1444" height="40" filterUnits="userSpaceOnUse" color-interpolation-filters="sRGB">
<feFlood flood-opacity="0" result="BackgroundImageFix"/>
<feColorMatrix in="SourceAlpha" type="matrix" values="0 0 0 0 0 0 0 0 0 0 0 0 0 0 0 0 0 0 127 0" result="hardAlpha"/>
<feOffset dx="4" dy="4"/>
<feComposite in2="hardAlpha" operator="out"/>
<feColorMatrix type="matrix" values="0 0 0 0 0.338846 0 0 0 0 0.282823 0 0 0 0 0.163775 0 0 0 0.3 0"/>
<feBlend mode="normal" in2="BackgroundImageFix" result="effect1_dropShadow_366_418"/>
<feBlend mode="normal" in="SourceGraphic" in2="effect1_dropShadow_366_418" result="shape"/>
</filter>
</defs>
</svg>
