<svg width="1324" height="551" viewBox="0 0 1324 551" fill="none" xmlns="http://www.w3.org/2000/svg">
<path d="M92.8876 105.055L120.874 127.74L139.406 96.8604L146.275 132.225L180.321 120.494L162.858 151.991L196.487 164.898L162.863 177.79L180.34 209.295L146.289 197.549L139.435 232.911L120.89 202.023L92.9132 224.696L98.5503 189.119L62.5413 188.494L89.7237 164.875L62.5312 141.244L98.5399 140.634L92.8876 105.055Z" fill="white"/>
<path d="M109.726 154.818L107.695 160.822L112.75 179.686L122.079 185.072L141.698 179.815L144.75 175.358L147.084 170.487L140.958 149.887L136.073 146.748L132.549 145.67L112.93 150.927L109.726 154.818Z" fill="#F1C851"/>
<path fill-rule="evenodd" clip-rule="evenodd" d="M134.976 146.434L111.584 152.702L110.573 148.929L133.965 142.661L134.976 146.434Z" fill="#211F22"/>
<path fill-rule="evenodd" clip-rule="evenodd" d="M144.281 181.146L120.888 187.414L119.877 183.641L143.27 177.373L144.281 181.146Z" fill="#211F22"/>
<path fill-rule="evenodd" clip-rule="evenodd" d="M139.763 149.197L135.99 150.208L134.979 146.435L138.752 145.424L139.763 149.197Z" fill="#211F22"/>
<path fill-rule="evenodd" clip-rule="evenodd" d="M112.591 156.476L108.818 157.487L107.807 153.714L111.58 152.703L112.591 156.476Z" fill="#211F22"/>
<path fill-rule="evenodd" clip-rule="evenodd" d="M120.38 162.882L116.607 163.893L115.596 160.12L119.369 159.109L120.38 162.882Z" fill="#211F22"/>
<path fill-rule="evenodd" clip-rule="evenodd" d="M122.7 171.559L118.927 172.57L117.916 168.797L121.689 167.786L122.7 171.559Z" fill="#211F22"/>
<path fill-rule="evenodd" clip-rule="evenodd" d="M135.971 172.047L123.709 175.333L122.698 171.56L134.96 168.274L135.971 172.047Z" fill="#211F22"/>
<path fill-rule="evenodd" clip-rule="evenodd" d="M136.224 158.636L132.451 159.647L131.44 155.874L135.213 154.863L136.224 158.636Z" fill="#211F22"/>
<path fill-rule="evenodd" clip-rule="evenodd" d="M138.552 167.314L134.779 168.325L133.768 164.552L137.541 163.541L138.552 167.314Z" fill="#211F22"/>
<path fill-rule="evenodd" clip-rule="evenodd" d="M119.872 183.639L116.099 184.65L115.088 180.877L118.861 179.866L119.872 183.639Z" fill="#211F22"/>
<path fill-rule="evenodd" clip-rule="evenodd" d="M147.044 176.361L143.271 177.372L142.26 173.599L146.033 172.588L147.044 176.361Z" fill="#211F22"/>
<path fill-rule="evenodd" clip-rule="evenodd" d="M143.531 148.186L149.799 171.578L146.026 172.589L139.758 149.197L143.531 148.186Z" fill="#211F22"/>
<path fill-rule="evenodd" clip-rule="evenodd" d="M108.82 157.487L115.088 180.879L111.315 181.89L105.047 158.498L108.82 157.487Z" fill="#211F22"/>
<path d="M121.117 482.747C121.117 491.706 127.338 502.406 130.076 507.383C133.062 502.157 139.781 492.303 139.781 482.747C139.781 473.191 136.048 470.056 130.076 470.056C124.103 470.056 121.117 473.788 121.117 482.747Z" fill="#D3ADF7"/>
<path d="M147.681 489.092C139.922 493.571 133.766 504.309 130.825 509.168C136.843 509.141 148.737 510.033 157.013 505.255C165.288 500.477 166.137 495.677 163.151 490.504C160.165 485.332 155.439 484.612 147.681 489.092Z" fill="#D3ADF7"/>
<path d="M112.319 489.092C120.078 493.571 126.234 504.309 129.175 509.168C123.157 509.141 111.263 510.033 102.987 505.255C94.7117 500.477 93.8626 495.677 96.8488 490.504C99.835 485.332 104.561 484.612 112.319 489.092Z" fill="#D3ADF7"/>
<path d="M121.117 536.983C121.117 528.025 127.338 517.324 130.076 512.347C133.062 517.573 139.781 527.428 139.781 536.983C139.781 546.539 136.048 549.675 130.076 549.675C124.103 549.675 121.117 545.942 121.117 536.983Z" fill="#D3ADF7"/>
<path d="M147.681 530.64C139.922 526.16 133.766 515.422 130.825 510.563C136.843 510.59 148.737 509.698 157.013 514.476C165.288 519.254 166.137 524.055 163.151 529.227C160.165 534.399 155.439 535.119 147.681 530.64Z" fill="#D3ADF7"/>
<path d="M112.319 530.64C120.078 526.16 126.234 515.422 129.175 510.563C123.157 510.59 111.263 509.698 102.987 514.476C94.7117 519.254 93.8626 524.055 96.8488 529.227C99.835 534.399 104.561 535.119 112.319 530.64Z" fill="#D3ADF7"/>
<circle cx="130.072" cy="508.877" r="9.70516" fill="#FADB14"/>
<path d="M1118.4 296.569L1102.2 283.437L1095.28 285.346L1087.8 293.244L1092.14 317.697L1108.99 331.355L1118.77 339.821L1124.72 345.722L1130.9 336.773L1138.07 325.942L1145.79 320.391L1151.08 308.571L1148.81 286.866L1141.5 279.328L1133.41 281.36L1124.95 291.14L1121.45 297.436L1118.4 296.569Z" fill="#D3ADF7"/>
<path d="M1095.38 320.323L1103.6 319.465L1104.45 327.677L1096.24 328.536L1095.38 320.323Z" fill="#211F22"/>
<path d="M1104.45 327.679L1112.67 326.82L1113.52 335.033L1105.31 335.891L1104.45 327.679Z" fill="#211F22"/>
<path d="M1113.52 335.033L1121.74 334.174L1122.59 342.386L1114.38 343.245L1113.52 335.033Z" fill="#211F22"/>
<path d="M1125.26 333.807L1133.47 332.948L1134.33 341.161L1126.12 342.019L1125.26 333.807Z" fill="#211F22"/>
<path d="M1132.61 324.735L1140.82 323.877L1141.68 332.089L1133.47 332.948L1132.61 324.735Z" fill="#211F22"/>
<path d="M1139.96 315.663L1148.17 314.805L1149.03 323.017L1140.82 323.876L1139.96 315.663Z" fill="#211F22"/>
<path d="M1091.21 280.435L1105.29 278.963L1106.15 287.175L1092.07 288.647L1091.21 280.435Z" fill="#211F22"/>
<path d="M1129.93 276.387L1144.01 274.915L1144.87 283.128L1130.79 284.599L1129.93 276.387Z" fill="#211F22"/>
<path d="M1106.15 287.175L1114.36 286.316L1115.22 294.529L1107.01 295.387L1106.15 287.175Z" fill="#211F22"/>
<path d="M1115.22 294.529L1123.43 293.671L1124.29 301.883L1116.08 302.742L1115.22 294.529Z" fill="#211F22"/>
<path d="M1120.13 341.459L1128.34 340.601L1129.2 348.813L1120.98 349.672L1120.13 341.459Z" fill="#211F22"/>
<path d="M1122.58 285.458L1130.79 284.6L1131.65 292.812L1123.44 293.671L1122.58 285.458Z" fill="#211F22"/>
<path d="M1083.86 289.505L1092.07 288.646L1095.38 320.323L1087.17 321.182L1083.86 289.505Z" fill="#211F22"/>
<path d="M1144.87 283.128L1153.08 282.269L1156.39 313.947L1148.18 314.805L1144.87 283.128Z" fill="#211F22"/>
<path d="M1309.64 41.1541C1309.64 61.3347 1293.28 77.6943 1273.1 77.6943C1252.92 77.6943 1236.56 61.3347 1236.56 41.1541C1236.56 20.9735 1252.92 4.61386 1273.1 4.61386C1293.28 4.61386 1309.64 20.9735 1309.64 41.1541ZM1273.1 80.6099C1294.89 80.6099 1312.55 62.945 1312.55 41.1541C1312.55 19.3632 1294.89 1.69824 1273.1 1.69824C1251.31 1.69824 1233.64 19.3632 1233.64 41.1541C1233.64 62.945 1251.31 80.6099 1273.1 80.6099Z" fill="#FADB14" stroke="#FADB14" stroke-width="2"/>
<path d="M1270.35 28.8276C1268.75 34.8003 1265.98 39.2473 1264.16 38.7602C1262.34 38.2732 1262.17 33.0365 1263.77 27.0638C1265.37 21.0911 1268.14 16.6441 1269.96 17.1312C1271.78 17.6183 1271.95 22.855 1270.35 28.8276Z" fill="black"/>
<path d="M1289.17 33.8677C1287.56 39.8404 1284.69 44.2592 1282.74 43.7373C1280.79 43.2154 1280.51 37.9506 1282.11 31.9779C1283.71 26.0052 1286.59 21.5864 1288.54 22.1083C1290.48 22.6301 1290.77 27.895 1289.17 33.8677Z" fill="black"/>
<path fill-rule="evenodd" clip-rule="evenodd" d="M1290.64 56.6041C1275.92 65.2006 1256.33 59.96 1248.32 45.2589L1249.12 44.8137C1256.87 59.0506 1275.9 64.1578 1290.18 55.8106L1290.64 56.6041Z" fill="black"/>
<path d="M1270.35 28.8276C1268.75 34.8003 1265.98 39.2473 1264.16 38.7602C1262.34 38.2732 1262.17 33.0365 1263.77 27.0638C1265.37 21.0911 1268.14 16.6441 1269.96 17.1312C1271.78 17.6183 1271.95 22.855 1270.35 28.8276Z" stroke="black" stroke-width="2"/>
<path d="M1289.17 33.8677C1287.56 39.8404 1284.69 44.2592 1282.74 43.7373C1280.79 43.2154 1280.51 37.9506 1282.11 31.9779C1283.71 26.0052 1286.59 21.5864 1288.54 22.1083C1290.48 22.6301 1290.77 27.895 1289.17 33.8677Z" stroke="black" stroke-width="2"/>
<path fill-rule="evenodd" clip-rule="evenodd" d="M1290.64 56.6041C1275.92 65.2006 1256.33 59.96 1248.32 45.2589L1249.12 44.8137C1256.87 59.0506 1275.9 64.1578 1290.18 55.8106L1290.64 56.6041Z" stroke="black" stroke-width="2"/>
<path d="M82.7444 281.85L79.0781 282.941L86.0294 304.727L89.6957 303.636L82.7444 281.85Z" fill="#CE99C5"/>
<path d="M85.9684 304.721L82.2422 305.824L83.4171 309.486L87.1433 308.384L85.9684 304.721Z" fill="#CE99C5"/>
<path d="M77.9215 279.317L74.1953 280.419L75.3702 284.082L79.0964 282.98L77.9215 279.317Z" fill="#CE99C5"/>
<path d="M83.3533 309.489L79.6641 310.581L81.9906 317.842L85.6798 316.749L83.3533 309.489Z" fill="#CE99C5"/>
<path d="M71.8611 273.204L68.1719 274.296L70.4984 281.556L74.1876 280.464L71.8611 273.204Z" fill="#CE99C5"/>
<path d="M70.8096 321.438L56.7651 277.655L67.9006 274.361L66.7251 270.696L37.0198 279.484L35.8519 275.843L32.1482 276.939L33.316 280.58L22.1586 283.88L20.9907 280.24L17.287 281.335L18.4548 284.976L3.61313 289.367L4.78863 293.031L53.037 278.758L67.0815 322.541L18.8332 336.815L20.0087 340.479L83.1207 321.809L81.9452 318.144L70.8096 321.438Z" fill="#CE99C5"/>
<path d="M74.7809 308.073L71.0547 309.175L72.2296 312.838L75.9558 311.735L74.7809 308.073Z" fill="#CE99C5"/>
<path d="M72.4762 300.812L68.75 301.914L69.9249 305.577L73.6511 304.475L72.4762 300.812Z" fill="#CE99C5"/>
<path d="M69.0309 289.93L65.3047 291.033L66.4796 294.695L70.2058 293.593L69.0309 289.93Z" fill="#CE99C5"/>
<path d="M66.7262 282.67L63 283.772L64.1749 287.434L67.9011 286.332L66.7262 282.67Z" fill="#CE99C5"/>
<path d="M36.28 264L32.5781 265.095L33.7453 268.734L37.4472 267.639L36.28 264Z" fill="#CE99C5"/>
<path d="M33.6939 268.735L29.9922 269.83L31.1671 273.493L34.8688 272.398L33.6939 268.735Z" fill="#CE99C5"/>
<path d="M31.1292 273.492L19.9375 276.811L21.1086 280.47L32.3003 277.152L31.1292 273.492Z" fill="#CE99C5"/>
<path d="M18.7486 273.21L15.0469 274.305L16.2217 277.968L19.9235 276.873L18.7486 273.21Z" fill="#CE99C5"/>
<path d="M13.8893 270.704L10.1875 271.799L11.3547 275.438L15.0566 274.343L13.8893 270.704Z" fill="#CE99C5"/>
<path d="M46.7319 284.623L13.3 294.513L14.4677 298.153L10.7692 299.247L20.1414 328.464L23.8398 327.37L25.0075 331.01L58.4345 321.121L57.2668 317.481L60.9701 316.386L51.598 287.169L47.8947 288.264L46.7319 284.623ZM35.387 299.975L39.1122 298.873L40.2876 302.537L36.5624 303.639L35.387 299.975ZM24.2528 303.269L27.9561 302.173L29.1314 305.837L25.4281 306.933L24.2528 303.269ZM46.3262 308.722L42.6229 309.817L43.7983 313.481L28.9364 317.878L27.7611 314.214L24.0602 315.309L22.8925 311.668L26.5958 310.573L27.7635 314.213L42.6254 309.817L41.4577 306.176L45.161 305.081L46.3262 308.722ZM51.4218 299.243L47.6941 300.346L45.3511 293.042L37.9445 295.233L36.7692 291.569L44.1757 289.378L45.3511 293.042L49.0788 291.939L51.4218 299.243Z" fill="#CE99C5"/>
<path d="M4.6787 293.315L0.999999 294.411L14.8585 337.959L18.5372 336.862L4.6787 293.315Z" fill="#CE99C5"/>
<path d="M1323.46 241.934L1320.23 241.068L1309.88 279.67L1313.11 280.535L1323.46 241.934Z" fill="#CE99C5"/>
<path d="M1309.88 279.67L1306.67 278.811L1305.81 282.019L1309.02 282.878L1309.88 279.67Z" fill="#CE99C5"/>
<path d="M1321.08 237.861L1317.87 237.001L1317.01 240.209L1320.22 241.069L1321.08 237.861Z" fill="#CE99C5"/>
<path d="M1305.81 282.019L1254.36 268.231L1253.49 271.461L1304.95 285.248L1305.81 282.019Z" fill="#CE99C5"/>
<path d="M1297.49 248.774L1294.28 247.915L1295.14 244.707L1291.91 243.841L1292.77 240.612L1289.57 239.752L1290.43 236.544L1280.78 233.96L1272.16 266.124L1281.81 268.709L1282.67 265.479L1285.88 266.339L1286.74 263.131L1289.97 263.997L1290.84 260.768L1294.04 261.627L1294.9 258.419L1298.11 259.278L1299.83 252.841L1296.63 251.982L1297.49 248.774Z" fill="#CE99C5"/>
<path d="M1318.73 233.794L1267.28 220.007L1266.42 223.215L1317.88 237.002L1318.73 233.794Z" fill="#CE99C5"/>
<path d="M1255.22 265.023L1251.99 264.158L1251.13 267.366L1254.36 268.231L1255.22 265.023Z" fill="#CE99C5"/>
<path d="M1266.42 223.214L1263.19 222.349L1262.34 225.557L1265.56 226.422L1266.42 223.214Z" fill="#CE99C5"/>
<path d="M1262.33 225.557L1259.12 224.697L1248.78 263.299L1251.99 264.158L1262.33 225.557Z" fill="#CE99C5"/>
</svg>
